<svg width="33" height="32" viewBox="0 0 33 32" fill="none" xmlns="http://www.w3.org/2000/svg">
<path fill-rule="evenodd" clip-rule="evenodd" d="M16.3 0C7.3 0 0 7.29999 0 16.3C0 23.5 4.7 29.6 11.1 31.8C11.9 31.9 12.2 31.4 12.2 31C12.2 30.6 12.2 29.6 12.2 28.2C7.7 29.2 6.7 26 6.7 26C6 24.1 4.9 23.6 4.9 23.6C3.4 22.6 5 22.6 5 22.6C6.6 22.7 7.5 24.3 7.5 24.3C9 26.8 11.3 26.1 12.2 25.7C12.3 24.6 12.8 23.9 13.2 23.5C9.6 23.1 5.8 21.7 5.8 15.4C5.8 13.6 6.4 12.2 7.5 11C7.3 10.6 6.8 8.90001 7.7 6.70001C7.7 6.70001 9.1 6.29999 12.2 8.39999C13.5 7.99999 14.9 7.89999 16.3 7.89999C17.7 7.89999 19.1 8.09999 20.4 8.39999C23.5 6.29999 24.9 6.70001 24.9 6.70001C25.8 8.90001 25.2 10.6 25.1 11C26.1 12.1 26.8 13.6 26.8 15.4C26.8 21.7 23 23 19.4 23.4C20 23.9 20.5 24.9 20.5 26.4C20.5 28.6 20.5 30.3 20.5 30.9C20.5 31.3 20.8 31.8 21.6 31.7C28.1 29.5 32.7 23.4 32.7 16.2C32.6 7.30001 25.3 0 16.3 0Z" fill="white"/>
</svg>
